<?xml version="1.0" standalone="no"?>
<!DOCTYPE svg PUBLIC "-//W3C//DTD SVG 20010904//EN"
 "http://www.w3.org/TR/2001/REC-SVG-20010904/DTD/svg10.dtd">
<svg version="1.0" xmlns="http://www.w3.org/2000/svg"
 width="512.000000pt" height="512.000000pt" viewBox="0 0 512.000000 512.000000"
 preserveAspectRatio="xMidYMid meet">
<metadata>
Created by potrace 1.14, written by Peter Selinger 2001-2017
</metadata>
<g transform="translate(0.000000,512.000000) scale(0.100000,-0.100000)"
fill="#000000" stroke="none">
<path d="M3208 5115 c-2 -2 -48 -6 -103 -10 -55 -3 -116 -8 -135 -10 -19 -1
-80 -6 -135 -9 -55 -4 -116 -9 -135 -11 -19 -2 -80 -6 -135 -10 -55 -3 -120
-8 -145 -10 -25 -3 -85 -7 -135 -10 -49 -3 -112 -7 -140 -10 -27 -3 -88 -7
-135 -10 -47 -3 -110 -8 -140 -10 -30 -3 -89 -7 -130 -10 -41 -3 -109 -7 -150
-10 -41 -4 -100 -8 -130 -10 -96 -7 -213 -15 -270 -20 -80 -6 -184 -14 -270
-20 -274 -19 -353 -26 -361 -30 -3 -2 -20 -7 -38 -10 -51 -9 -145 -50 -198
-86 -75 -52 -131 -117 -174 -204 -73 -148 -69 -52 -66 -1695 1 -811 6 -1486
10 -1500 39 -136 89 -243 161 -344 24 -34 142 -188 262 -343 121 -155 260
-334 309 -399 111 -144 198 -225 290 -270 114 -56 170 -64 410 -58 116 2 228
6 250 8 22 3 96 7 165 11 69 3 148 8 175 10 28 2 97 7 155 10 58 3 132 7 165
10 33 2 105 7 160 10 168 9 246 14 338 20 48 3 126 7 175 10 48 3 119 7 157
10 39 2 115 7 170 10 155 9 243 14 330 20 80 5 149 9 345 20 58 3 130 8 160
10 30 2 99 6 153 10 94 6 209 29 272 56 17 7 33 12 38 11 4 -1 7 1 7 6 0 4 15
13 33 21 49 22 168 148 199 213 68 139 63 -1 65 1818 3 1793 5 1713 -53 1819
-52 95 -101 138 -404 349 -245 172 -256 180 -327 230 -29 20 -82 57 -118 82
-36 25 -73 51 -83 58 -202 148 -325 218 -442 252 -60 18 -107 23 -237 25 -89
2 -163 2 -165 0z"/>
</g>
</svg>
